<?xml version="1.0" encoding="UTF-8" standalone="no"?>
<!-- Created with Inkscape (http://www.inkscape.org/) -->

<svg
   width="100.00002"
   height="99.999992"
   viewBox="0 0 26.45834 26.458331"
   version="1.1"
   id="svg1"
   inkscape:version="1.4.2 (ebf0e940, 2025-05-08)"
   sodipodi:docname="snowflake_logo.svg"
   xmlns:inkscape="http://www.inkscape.org/namespaces/inkscape"
   xmlns:sodipodi="http://sodipodi.sourceforge.net/DTD/sodipodi-0.dtd"
   xmlns="http://www.w3.org/2000/svg"
   xmlns:svg="http://www.w3.org/2000/svg">
  <sodipodi:namedview
     id="namedview1"
     pagecolor="#505050"
     bordercolor="#ffffff"
     borderopacity="1"
     inkscape:showpageshadow="0"
     inkscape:pageopacity="0"
     inkscape:pagecheckerboard="1"
     inkscape:deskcolor="#505050"
     inkscape:document-units="px"
     inkscape:zoom="8.3856039"
     inkscape:cx="73.101474"
     inkscape:cy="51.99387"
     inkscape:window-width="3424"
     inkscape:window-height="1365"
     inkscape:window-x="8"
     inkscape:window-y="39"
     inkscape:window-maximized="0"
     inkscape:current-layer="layer1" />
  <defs
     id="defs1" />
  <g
     inkscape:label="Layer 1"
     inkscape:groupmode="layer"
     id="layer1">
    <path
       class="st0"
       d="m 25.62172,11.402178 -3.132039,1.804977 3.132039,1.804978 c 0.794038,0.440238 1.058717,1.452787 0.617584,2.245217 -0.441132,0.792429 -1.455736,1.056572 -2.249774,0.616334 l -5.602379,-3.213742 c -0.352906,-0.220118 -0.617585,-0.572309 -0.749925,-0.924501 -0.04412,-0.176095 -0.08823,-0.352189 -0.08823,-0.528286 0,-0.13208 0.04412,-0.264143 0.04412,-0.396215 0.132331,-0.396214 0.397019,-0.748404 0.749925,-0.968524 l 5.602379,-3.21374 c 0.794038,-0.44024 1.808642,-0.176097 2.249774,0.616333 0.529359,0.704382 0.220567,1.71693 -0.573471,2.157169 z m -2.955587,8.716723 -5.602378,-3.213743 c -0.308792,-0.176094 -0.661699,-0.220118 -0.970491,-0.176094 -0.838152,0.04403 -1.543963,0.792429 -1.543963,1.628881 v 6.427483 c 0,0.924501 0.749925,1.628882 1.632189,1.628882 0.926377,0 1.676303,-0.748406 1.676303,-1.628882 v -3.609955 l 3.132039,1.804977 c 0.794038,0.440238 1.808641,0.176095 2.249774,-0.616335 0.485244,-0.748404 0.220565,-1.760953 -0.573473,-2.245214 z m -6.484643,-6.295412 -2.338,2.333265 c -0.04412,0.04403 -0.176454,0.132063 -0.264679,0.132063 h -0.176454 -0.352905 -0.176454 c -0.08823,0 -0.220565,-0.04403 -0.308792,-0.132063 l -2.337999,-2.333265 c -0.04412,-0.04403 -0.08823,-0.176094 -0.08823,-0.264143 V 13.383252 13.03106 12.854965 c 0,-0.08805 0.04412,-0.220119 0.132348,-0.308168 l 2.337999,-2.333263 c 0.08823,-0.08805 0.220567,-0.132063 0.308794,-0.132063 h 0.176452 0.352907 0.176452 c 0.08823,0 0.220567,0.04403 0.308792,0.132063 l 2.338001,2.333263 c 0.08823,0.08805 0.132331,0.176097 0.132331,0.308168 v 0.176095 0.352192 0.176094 c -0.08823,0.08805 -0.132331,0.22012 -0.220566,0.264143 z m -1.852755,-0.616334 c 0,-0.08805 -0.04412,-0.220118 -0.132332,-0.308166 l -0.661706,-0.660358 c -0.08823,-0.08805 -0.176453,-0.13208 -0.308792,-0.13208 v 0 c -0.08823,0 -0.220567,0.04403 -0.308792,0.13208 l -0.661699,0.660358 c -0.08823,0.08805 -0.132331,0.220119 -0.132331,0.308166 v 0 c 0,0.08805 0.04412,0.22012 0.132331,0.308168 l 0.661699,0.660358 c 0.08823,0.08805 0.176452,0.132063 0.308792,0.132063 v 0 c 0.08823,0 0.220566,-0.04403 0.308792,-0.132063 l 0.661698,-0.660358 c 0.08823,-0.08805 0.132331,-0.22012 0.132331,-0.308168 z M 3.7856756,6.251388 l 5.602378,3.21374 c 0.308794,0.176095 0.6175864,0.22012 0.9704924,0.22012 0.838151,-0.04403 1.543962,-0.792429 1.543962,-1.628883 V 1.628884 C 11.902508,0.704383 11.152583,0 10.270319,0 9.3439416,0 8.5940156,0.748406 8.5940156,1.628884 V 5.238839 L 5.4619786,3.43386 C 4.6679406,2.993622 3.6533356,3.257765 3.2122046,4.050195 2.7269586,4.798601 2.9916376,5.811148 3.7856756,6.251388 Z m 12.3075884,3.43386 c 0.308792,0.04403 0.661699,-0.04403 0.970491,-0.22012 l 5.602378,-3.21374 C 23.460171,5.811148 23.72485,4.798601 23.283719,4.006171 22.842587,3.213742 21.827983,2.949599 21.033945,3.389837 l -3.13204,1.804978 V 1.628884 C 17.901905,0.704383 17.151982,0 16.225604,0 15.299226,0 14.549301,0.704383 14.549301,1.628884 v 6.427481 c 0,0.880477 0.705811,1.584858 1.543963,1.628883 z m -6.7052104,7.263935 -5.602378,3.213741 c -0.794038,0.440238 -1.058717,1.452787 -0.617586,2.245216 0.441134,0.79243 1.455737,1.056573 2.249775,0.616333 l 3.132039,-1.804977 v 3.609955 c 0,0.924501 0.749925,1.628882 1.6763034,1.628882 0.926376,0 1.632188,-0.748404 1.632188,-1.628882 v -6.471506 c 0,-1.295691 -1.361558,-2.041042 -2.4703414,-1.408762 z m -0.573471,-3.257765 c 0.04412,-0.176095 0.08823,-0.352191 0.08823,-0.528286 0,-0.132064 -0.04412,-0.264143 -0.04412,-0.396215 -0.132331,-0.396215 -0.352905,-0.748406 -0.749924,-0.968524 L 2.4622826,8.584651 C 1.6682446,8.144413 0.65363955,8.408556 0.21250755,9.200985 c -0.441131,0.79243 -0.176452,1.804979 0.617586,2.245217 L 3.9621316,13.25118 0.83009355,15.056157 c -0.794038,0.440239 -1.058717,1.452787 -0.617586,2.245216 0.441132,0.792429 1.45573705,1.056572 2.24977505,0.616335 l 5.602378,-3.213741 c 0.397019,-0.308168 0.661698,-0.616334 0.749925,-1.012549 z"
       id="path1-6"
       sodipodi:nodetypes="cccscccsccccccccsssscccccssccssssccssssccssssccccsscsssssssssssssccccsssccccccccccssssccccccssssccscccscccscccccsc"
       style="clip-rule:evenodd;fill:#2bb5e9;fill-rule:evenodd;stroke-width:0.440684" />
  </g>
</svg>
